<?xml version="1.0" standalone="no"?>
<!DOCTYPE svg PUBLIC "-//W3C//DTD SVG 20010904//EN"
 "http://www.w3.org/TR/2001/REC-SVG-20010904/DTD/svg10.dtd">
<svg version="1.0" xmlns="http://www.w3.org/2000/svg"
 width="185.000000pt" height="185.000000pt" viewBox="0 0 185.000000 185.000000"
 preserveAspectRatio="xMidYMid meet">
<metadata>
Created by potrace 1.11, written by Peter Selinger 2001-2013
</metadata>
<g transform="translate(0.000000,185.000000) scale(0.100000,-0.100000)"
fill="#000000" stroke="none">
<path d="M567 1833 c-4 -3 -7 -17 -7 -29 0 -22 4 -23 93 -26 50 -2 113 -2 140
0 45 3 47 5 47 33 l0 29 -133 0 c-74 0 -137 -3 -140 -7z"/>
<path d="M578 1728 c-4 -11 -3 -280 1 -300 2 -11 63 -28 101 -28 64 0 98 11
135 44 29 25 36 39 37 71 2 70 -1 82 -33 112 l-30 30 32 27 c17 15 30 28 28
29 -10 7 -61 27 -68 27 -10 0 -106 -88 -100 -92 2 -2 18 -10 34 -18 42 -21 66
-73 53 -111 -12 -34 -35 -49 -77 -49 l-31 0 0 135 0 135 -39 0 c-22 0 -41 -5
-43 -12z"/>
<path d="M908 1728 c-2 -7 -4 -83 -3 -168 l1 -154 42 -4 c37 -3 42 -1 42 18
l0 21 26 -20 c49 -39 154 -18 171 34 7 22 12 253 5 273 -2 7 -21 12 -42 12
l-37 0 -1 -114 c0 -147 -3 -156 -51 -156 -63 0 -71 18 -71 153 l0 117 -39 0
c-22 0 -41 -5 -43 -12z"/>
<path d="M1303 1466 c-43 -29 -166 -117 -177 -127 -5 -5 1 -12 14 -17 21 -8
19 -10 -28 -27 -29 -11 -52 -23 -52 -27 0 -8 6 -9 65 -12 17 -1 35 -5 40 -8
14 -8 238 81 251 101 7 9 23 29 38 46 14 16 24 30 22 32 -1 2 -41 -10 -87 -27
-46 -16 -76 -24 -67 -16 10 7 16 15 13 17 -2 3 0 21 5 42 4 20 5 39 1 41 -3 2
-20 -6 -38 -18z"/>
<path d="M680 1296 c0 -13 7 -26 15 -30 8 -3 15 -9 14 -13 -5 -30 4 -33 86
-33 l85 0 0 30 c0 29 -1 30 -48 30 -36 0 -50 5 -60 20 -9 15 -23 20 -52 20
-36 0 -40 -3 -40 -24z"/>
<path d="M1499 1203 c0 -21 -1 -87 -1 -148 0 -124 -9 -145 -63 -145 -47 0 -66
27 -64 91 1 30 1 82 0 117 l-1 62 -40 0 -40 0 0 -129 c0 -144 10 -169 76 -197
73 -31 177 -3 203 53 6 14 11 87 11 178 l0 155 -40 0 c-39 0 -40 -1 -41 -37z"/>
<path d="M1013 1178 c-43 -9 -113 -73 -113 -103 0 -24 78 -20 98 5 25 29 94
34 122 8 28 -26 40 -60 34 -94 -7 -36 -11 -42 -45 -63 -36 -22 -81 -16 -110
15 l-22 24 41 0 c41 0 42 1 42 34 l0 34 -85 0 -86 -1 3 -45 c6 -121 141 -189
258 -129 63 31 92 84 87 159 -7 115 -102 182 -224 156z"/>
<path d="M578 1168 c-2 -7 -4 -78 -3 -158 l0 -145 40 -13 c24 -8 63 -12 97 -9
113 10 169 91 131 187 -8 19 -23 42 -34 50 -19 15 -19 16 11 45 l30 29 -31 13
c-43 18 -42 18 -93 -30 -48 -45 -55 -57 -32 -57 24 0 66 -41 74 -73 15 -54
-18 -96 -75 -97 l-33 0 0 135 0 135 -39 0 c-22 0 -41 -5 -43 -12z"/>
<path d="M398 1065 c-14 -16 -28 -23 -40 -19 -10 3 -25 1 -33 -3 -12 -7 -155
-274 -155 -290 0 -2 5 -3 11 -3 6 0 60 -23 120 -51 91 -42 116 -50 145 -45 22
5 34 13 35 24 1 23 3 32 38 162 27 99 29 116 16 126 -9 7 -13 26 -12 52 2 51
-8 62 -61 68 -35 4 -45 1 -64 -21z m59 -4 c12 -19 12 -52 0 -51 -4 0 -12 0
-17 0 -7 0 -7 7 0 21 7 11 9 23 7 26 -3 2 -10 -5 -17 -16 -10 -20 -30 -21 -30
-1 0 10 28 40 38 40 4 0 12 -8 19 -19z m51 -14 c5 -26 -7 -69 -17 -62 -5 2
-11 23 -13 45 -3 32 0 40 12 38 8 -2 16 -11 18 -21z"/>
<path d="M574 779 c-21 -11 -54 -58 -54 -78 0 -6 17 -11 39 -11 30 0 40 4 44
20 6 21 31 27 43 9 3 -6 -4 -25 -16 -41 -21 -29 -23 -40 -23 -217 l0 -186 41
-3 42 -3 0 183 c0 166 2 186 20 213 26 39 25 58 -3 90 -25 30 -96 43 -133 24z"/>
<path d="M1221 753 c-21 -4 -23 -8 -17 -41 13 -74 12 -77 -14 -80 -14 -2 -30
-8 -37 -14 -11 -9 -11 -58 1 -77 9 -14 45 -195 40 -202 -2 -4 3 -20 11 -35 17
-33 53 -47 75 -29 22 18 134 38 138 25 2 -6 15 0 28 14 25 24 25 25 10 83 -10
37 -12 61 -6 67 16 16 11 54 -9 73 -11 10 -25 43 -33 73 l-13 55 -42 -3 c-46
-3 -41 -8 -58 73 -5 26 -18 28 -74 18z m68 -69 c1 -28 -3 -32 -29 -36 -16 -3
-30 -1 -30 4 0 12 -1 15 -10 48 -8 28 -6 30 23 38 36 10 45 -1 46 -54z m157
-168 c3 -8 4 -22 2 -31 -2 -12 -7 -7 -15 14 -6 18 -7 31 -2 31 5 0 12 -6 15
-14z"/>
<path d="M1250 670 c-12 -7 -10 -9 8 -7 12 0 22 5 22 9 0 11 -12 10 -30 -2z"/>
<path d="M873 718 c2 -12 9 -24 15 -26 7 -2 12 -14 12 -27 0 -22 3 -23 88 -22
l88 1 2 28 c2 25 -1 28 -30 29 -18 1 -41 1 -50 0 -9 -1 -22 7 -28 18 -8 16
-21 21 -55 21 -41 0 -45 -2 -42 -22z"/>
<path d="M917 559 l-47 -46 29 -13 c40 -16 61 -42 65 -76 5 -46 -19 -82 -59
-90 -20 -3 -39 -3 -43 0 -3 4 -6 64 -7 134 l-1 127 -42 3 -42 3 0 -156 0 -155
28 -12 c43 -17 142 -14 180 6 81 42 96 154 30 216 l-23 21 22 19 c33 27 32 40
-7 53 -34 12 -36 11 -83 -34z"/>
<path d="M1066 136 c-9 -14 -16 -45 -16 -70 0 -25 -4 -47 -8 -50 -17 -10 -36
14 -39 50 -4 57 -13 54 -13 -4 0 -47 2 -52 25 -58 38 -10 54 11 57 74 2 46 7
57 21 60 15 3 17 0 10 -15 -10 -20 -10 -109 0 -120 4 -3 8 21 9 55 1 34 2 70
2 79 1 28 -29 27 -48 -1z"/>
<path d="M822 130 c5 -16 48 -24 48 -10 0 6 -4 10 -9 10 -5 0 -17 3 -27 7 -11
4 -15 2 -12 -7z"/>
<path d="M1179 126 c7 -9 23 -16 34 -16 26 0 12 15 -23 25 -22 7 -23 6 -11 -9z"/>
<path d="M584 122 c7 -12 64 -13 71 -1 4 5 -12 9 -35 9 -23 0 -39 -4 -36 -8z"/>
<path d="M898 99 c-28 -16 -21 -30 8 -17 22 10 28 10 39 -5 19 -26 7 -57 -21
-57 -28 0 -42 19 -23 31 11 7 11 9 -3 9 -26 0 -32 -19 -12 -41 22 -24 60 -25
74 0 16 31 12 59 -12 75 -26 19 -27 19 -50 5z"/>
<path d="M585 53 c1 -46 2 -48 29 -48 18 0 34 8 43 21 12 19 12 24 -3 39 -15
14 -15 18 -3 26 8 5 10 9 4 9 -5 0 -16 -4 -24 -9 -12 -8 -12 -12 2 -26 10 -9
17 -20 17 -25 0 -12 -40 -33 -42 -23 0 4 -2 13 -3 18 -2 6 -3 22 -4 38 0 15
-5 27 -9 27 -5 0 -8 -21 -7 -47z"/>
<path d="M680 53 c0 -48 0 -48 35 -51 26 -1 37 3 42 15 10 26 8 76 -4 80 -6 2
-9 -10 -7 -30 5 -37 -13 -61 -35 -48 -7 5 -13 25 -13 45 0 20 -4 36 -9 36 -5
0 -9 -21 -9 -47z"/>
<path d="M782 53 c3 -41 6 -48 26 -51 13 -2 30 2 38 8 16 15 19 60 3 60 -6 0
-9 7 -5 15 6 17 -9 21 -19 4 -4 -5 0 -18 8 -27 18 -21 11 -42 -14 -42 -20 0
-22 7 -19 53 1 15 -4 27 -10 27 -7 0 -10 -17 -8 -47z"/>
<path d="M1136 63 c1 -21 2 -44 3 -50 1 -18 41 -16 62 3 17 15 15 54 -3 54 -6
0 -8 7 -4 15 6 17 -9 21 -19 5 -3 -6 1 -17 10 -26 20 -21 15 -38 -13 -42 -20
-3 -22 1 -22 37 0 23 -4 41 -8 41 -5 0 -7 -17 -6 -37z"/>
<path d="M180 63 c21 -71 33 -80 45 -36 l8 28 12 -30 13 -30 10 25 c6 14 14
34 17 45 6 17 10 13 22 -23 15 -42 33 -49 33 -12 0 32 17 32 24 0 8 -42 25
-37 32 10 6 38 24 57 24 25 0 -19 21 -65 30 -65 4 0 11 15 15 33 l8 32 6 -29
c3 -16 12 -31 19 -34 7 -2 12 0 11 5 -1 4 3 21 9 36 14 34 15 47 3 47 -5 0
-13 -15 -17 -33 l-7 -32 -10 33 c-6 17 -13 32 -17 32 -4 0 -11 -15 -15 -33
l-7 -32 -10 33 c-10 38 -41 41 -46 4 -4 -27 -22 -29 -22 -3 0 31 -18 34 -33 5
l-14 -27 -7 27 c-9 36 -46 37 -46 1 0 -33 -14 -32 -27 3 -11 28 -10 29 -29
-25 -5 -14 -9 -11 -16 15 -5 17 -13 32 -18 32 -5 0 -5 -12 0 -27z"/>
<path d="M1282 78 c-7 -7 -12 -21 -12 -33 0 -41 45 -60 70 -30 14 17 7 19 -20
5 -27 -15 -47 22 -24 44 14 14 17 14 39 0 13 -8 26 -26 29 -40 9 -34 52 -33
68 2 21 46 -29 85 -65 50 -13 -14 -16 -14 -27 -1 -15 18 -42 19 -58 3z m138
-33 c0 -26 -22 -39 -39 -22 -22 22 -2 61 25 50 8 -3 14 -15 14 -28z"/>
<path d="M1453 43 c-1 -24 3 -43 8 -43 5 0 9 15 9 34 0 21 6 36 15 40 16 6 17
5 19 -37 1 -15 6 -26 11 -25 5 2 8 14 6 27 -3 23 16 44 31 35 4 -3 8 -21 8
-40 0 -19 4 -33 8 -30 7 4 8 30 3 73 -1 7 -21 11 -59 10 l-58 -2 -1 -42z"/>
<path d="M1230 10 c0 -5 5 -10 10 -10 6 0 10 5 10 10 0 6 -4 10 -10 10 -5 0
-10 -4 -10 -10z"/>
</g>
</svg>
